<svg width="61" height="20" viewBox="0 0 61 20" fill="none" xmlns="http://www.w3.org/2000/svg">
<path d="M31.7812 5.27273V14H30.4688V6.39773H26.3608V14H25.0483V5.27273H31.7812ZM36.4496 14.1321C35.8359 14.1321 35.3004 13.9915 34.843 13.7102C34.3857 13.429 34.0305 13.0355 33.7777 12.5298C33.5249 12.0241 33.3984 11.4332 33.3984 10.7571C33.3984 10.0781 33.5249 9.48437 33.7777 8.97585C34.0305 8.46733 34.3857 8.07244 34.843 7.79119C35.3004 7.50994 35.8359 7.36932 36.4496 7.36932C37.0632 7.36932 37.5987 7.50994 38.0561 7.79119C38.5135 8.07244 38.8686 8.46733 39.1214 8.97585C39.3743 9.48437 39.5007 10.0781 39.5007 10.7571C39.5007 11.4332 39.3743 12.0241 39.1214 12.5298C38.8686 13.0355 38.5135 13.429 38.0561 13.7102C37.5987 13.9915 37.0632 14.1321 36.4496 14.1321ZM36.4538 13.0625C36.8516 13.0625 37.1811 12.9574 37.4425 12.7472C37.7038 12.5369 37.897 12.2571 38.022 11.9077C38.1499 11.5582 38.2138 11.1733 38.2138 10.7528C38.2138 10.3352 38.1499 9.9517 38.022 9.60227C37.897 9.25 37.7038 8.96733 37.4425 8.75426C37.1811 8.54119 36.8516 8.43466 36.4538 8.43466C36.0533 8.43466 35.7209 8.54119 35.4567 8.75426C35.1953 8.96733 35.0007 9.25 34.8729 9.60227C34.7479 9.9517 34.6854 10.3352 34.6854 10.7528C34.6854 11.1733 34.7479 11.5582 34.8729 11.9077C35.0007 12.2571 35.1953 12.5369 35.4567 12.7472C35.7209 12.9574 36.0533 13.0625 36.4538 13.0625ZM42.1715 12.2145L45.0565 7.45455H46.4286V14H45.18V9.2358L42.3079 14H40.9229V7.45455H42.1715V12.2145ZM50.8988 14.1321C50.2653 14.1321 49.7198 13.9886 49.2624 13.7017C48.8079 13.4119 48.4585 13.0128 48.2141 12.5043C47.9698 11.9957 47.8477 11.4134 47.8477 10.7571C47.8477 10.0923 47.9727 9.50568 48.2227 8.99716C48.4727 8.4858 48.8249 8.08665 49.2795 7.79972C49.734 7.51278 50.2695 7.36932 50.886 7.36932C51.3832 7.36932 51.8263 7.46165 52.2156 7.64631C52.6048 7.82812 52.9187 8.08381 53.1573 8.41335C53.3988 8.7429 53.5423 9.12784 53.5877 9.56818H52.3477C52.2795 9.26136 52.1232 8.99716 51.8789 8.77557C51.6374 8.55398 51.3136 8.44318 50.9073 8.44318C50.5522 8.44318 50.2411 8.53693 49.9741 8.72443C49.7099 8.90909 49.5039 9.1733 49.3562 9.51705C49.2085 9.85795 49.1346 10.2614 49.1346 10.7273C49.1346 11.2045 49.207 11.6165 49.3519 11.9631C49.4968 12.3097 49.7013 12.5781 49.9656 12.7685C50.2326 12.9588 50.5465 13.054 50.9073 13.054C51.1488 13.054 51.3675 13.0099 51.5636 12.9219C51.7624 12.831 51.9286 12.7017 52.0621 12.5341C52.1985 12.3665 52.2937 12.1648 52.3477 11.929H53.5877C53.5423 12.3523 53.4045 12.7301 53.1744 13.0625C52.9442 13.3949 52.636 13.6562 52.2496 13.8466C51.8661 14.0369 51.4158 14.1321 50.8988 14.1321ZM54.9503 14V7.45455H56.2244V10.1989H56.8381L58.9986 7.45455H60.5753L58.0398 10.6378L60.6051 14H59.0241L57.0511 11.3835H56.2244V14H54.9503Z" fill="#999999"/>
<path fill-rule="evenodd" clip-rule="evenodd" d="M11.5924 11.4138C10.1605 12.8457 7.83886 12.8457 6.40694 11.4138C4.97502 9.9819 4.97502 7.6603 6.40694 6.22837C7.83886 4.79645 10.1605 4.79645 11.5924 6.22837C13.0243 7.6603 13.0243 9.9819 11.5924 11.4138ZM12.0328 12.7968C10.0725 14.2962 7.25696 14.1495 5.46413 12.3566C3.51151 10.404 3.51151 7.23819 5.46413 5.28556C7.41675 3.33294 10.5826 3.33294 12.5352 5.28556C14.3279 7.07831 14.4747 9.89373 12.9755 11.8539L16.5423 15.4206L15.5994 16.3635L12.0328 12.7968Z" fill="#999999"/>
</svg>
